<svg xmlns="http://www.w3.org/2000/svg" viewBox="0 0 42.48 50.47"><defs><style>.cls-1{fill:#b3e036;}.cls-1,.cls-2,.cls-3,.cls-4,.cls-6,.cls-9{stroke:#515151;stroke-width:0.75px;}.cls-1,.cls-2,.cls-3,.cls-6{stroke-miterlimit:10;}.cls-2,.cls-4{fill:#fff;}.cls-3,.cls-5{fill:#d3d3d3;}.cls-4,.cls-9{stroke-linejoin:round;}.cls-6{fill:#ffab48;}.cls-7{fill:#ff8400;}.cls-8{fill:#515151;}.cls-9{fill:#88b337;}.cls-10{fill:#90d200;}</style></defs><title>ingredient</title><g id="Layer_2" data-name="Layer 2"><g id="Layer_1-2" data-name="Layer 1"><path class="cls-1" d="M15.17,14.42,17.57,12a1.84,1.84,0,0,0,0-2.57,1.76,1.76,0,0,0-2.52,0l2.52-2.57a1.84,1.84,0,0,0,0-2.57,1.76,1.76,0,0,0-2.52,0L13.78,5.53V2.1A1.71,1.71,0,0,0,13,.61a1.69,1.69,0,0,0-1.71,0,1.71,1.71,0,0,0-.83,1.49V5.53L9.15,4.24a1.77,1.77,0,0,0-2.53,0,1.86,1.86,0,0,0,0,2.58L8.88,9.16a1.76,1.76,0,0,0-2.26.23,1.84,1.84,0,0,0,0,2.56l2.9,3c-.13-.12-.26-.26-.39-.4A1.79,1.79,0,0,0,7.87,14a1.76,1.76,0,0,0-1.26.53,1.82,1.82,0,0,0,0,2.54l5.53,5.59,5.43-5.57a1.84,1.84,0,0,0,0-2.57,1.75,1.75,0,0,0-2.4-.11Z"/><rect class="cls-2" x="14.66" y="9.81" width="9.43" height="26.57"/><path class="cls-3" d="M24.09,36.38h8.57V9.81L28.38,5.53,24.09,9.81Z"/><path class="cls-4" d="M14.66,9.81,19,5.53h9.43L24.09,9.81Z"/><rect class="cls-2" x="18.95" y="2.1" width="9.43" height="3.43"/><path class="cls-5" d="M14.24,25.67V36.38h9.43V16.24Z"/><path class="cls-6" d="M37.37.38A4.82,4.82,0,0,1,41.77,7L32.84,30.72a4.7,4.7,0,0,1-4.4,3.09A4.82,4.82,0,0,1,24,27.25L33,3.48a4.72,4.72,0,0,1,4.4-3.1Z"/><path class="cls-7" d="M24.32,27.08a4.51,4.51,0,0,0,4.13,6.16,4.44,4.44,0,0,0,4.13-2.91L38,15.87A25,25,0,0,1,26.7,20.72Z"/><path class="cls-8" d="M35,7.51,36,7l1,5.15-1,.53Z"/><path class="cls-8" d="M32.5,13.51l1-.53,1,5.14-1,.53Z"/><path class="cls-9" d="M3,8.5l1.52-.8,3.17,6-1.52.8Z"/><path class="cls-9" d="M.38,11.05,1.53,9.78l4.85,4.4L5.23,15.45Z"/><path class="cls-6" d="M17.7,32.93a1.73,1.73,0,0,1-2.32-.37L4.67,19.12a3.82,3.82,0,0,1,.76-5.64,3.74,3.74,0,0,1,5.45,1.44l7.43,15.82a1.74,1.74,0,0,1-.6,2.19Z"/><path class="cls-8" d="M7.74,17.87,4.83,19.12l1.07.75,2.89-1.24Z"/><path class="cls-8" d="M10.1,21.33l-2.6,1.2,1.07.8,2.59-1.2Z"/><path class="cls-1" d="M22.38,21.38a4.72,4.72,0,1,1-4.72-4.71,4.72,4.72,0,0,1,4.72,4.71Z"/><path class="cls-10" d="M19.59,17.52A5.4,5.4,0,0,1,13.33,24a4.72,4.72,0,1,0,6.26-6.47Z"/><path class="cls-2" d="M26.66,21l-2.57,1.72L21.52,21,19,22.67,16.38,21l-2.57,1.72L11.24,21,8.66,22.67,6.09,21V46.67A3.44,3.44,0,0,0,9.52,50.1H29.24V22.67Z"/><path class="cls-3" d="M34.38,22.67,31.81,21l-2.57,1.72V50.1h4.28A3.44,3.44,0,0,0,37,46.67V21Z"/></g></g></svg>