<svg xmlns="http://www.w3.org/2000/svg" viewBox="0 0 52.75 42.99"><defs><style>.cls-1{fill:#b3e036;}.cls-1,.cls-2,.cls-3,.cls-4,.cls-5,.cls-6{stroke:#515151;stroke-linejoin:round;stroke-width:0.75px;}.cls-2{fill:#fff;}.cls-3{fill:#ffab48;}.cls-4{fill:#90d200;}.cls-5{fill:#d3d3d3;}.cls-6{fill:#ff8400;}</style></defs><title>nutrition_fact</title><g id="Layer_2" data-name="Layer 2"><g id="Layer_1-2" data-name="Layer 1"><polygon class="cls-1" points="26.38 0.38 19.88 7.57 26.36 10.91 26.38 0.38"/><polygon class="cls-2" points="19.88 7.58 13.38 14.77 26.35 21.45 26.36 10.91 19.88 7.58"/><polygon class="cls-3" points="6.88 21.98 26.34 32 26.35 21.46 13.38 14.79 6.88 21.98"/><polygon class="cls-2" points="0.38 29.21 13.35 35.89 26.32 42.57 26.34 32.03 6.88 22.02 0.38 29.21"/><polygon class="cls-4" points="26.38 0.41 32.88 7.61 26.39 10.95 26.38 0.41"/><polygon class="cls-5" points="32.88 7.62 39.38 14.81 26.4 21.49 26.39 10.96 32.88 7.62"/><polygon class="cls-6" points="45.88 22.02 26.41 32.04 26.4 21.5 39.38 14.83 45.88 22.02"/><polygon class="cls-5" points="52.38 29.25 39.4 35.94 26.43 42.61 26.41 32.08 45.88 22.06 52.38 29.25"/></g></g></svg>