<svg xmlns="http://www.w3.org/2000/svg" viewBox="0 0 124.16 140.64"><defs><style>.cls-1,.cls-2{fill:none;stroke-miterlimit:10;}.cls-1,.cls-2,.cls-6{stroke:#515151;stroke-width:1.5px;}.cls-2{stroke-linecap:round;}.cls-3,.cls-6{fill:#fff;}.cls-4{fill:#515151;}.cls-5{fill:#ff8500;}.cls-6{stroke-linejoin:round;}</style></defs><title>Asset 19</title><g id="Layer_2" data-name="Layer 2"><g id="Layer_1-2" data-name="Layer 1"><line class="cls-1" x1="91.75" y1="36.11" x2="103.41" y2="19.45"/><line class="cls-1" x1="31.96" y1="36.11" x2="20.3" y2="19.45"/><line class="cls-2" x1="98.77" y1="139.89" x2="87.11" y2="123.24"/><line class="cls-2" x1="24.84" y1="139.89" x2="36.5" y2="123.24"/><path class="cls-3" d="M61.88,137.87a59.31,59.31,0,1,1,59.3-59.31A59.37,59.37,0,0,1,61.88,137.87Z"/><path class="cls-4" d="M61.88,20A58.56,58.56,0,1,1,3.32,78.56,58.62,58.62,0,0,1,61.88,20m0-1.5a60.06,60.06,0,1,0,60.05,60.06,60.05,60.05,0,0,0-60-60.06Z"/><circle class="cls-5" cx="61.78" cy="79.24" r="46.04"/><path class="cls-3" d="M62,39.9V79.56h39.66A39.65,39.65,0,0,0,62,39.9Z"/><path class="cls-6" d="M36.83,9.21A19.83,19.83,0,0,0,4.29,31.89L36.87,9.27Z"/><path class="cls-6" d="M87.54,9.8l32.25,22.77,0-.07A19.74,19.74,0,0,0,87.54,9.8Z"/></g></g></svg>