<svg id="Layer_1" data-name="Layer 1" xmlns="http://www.w3.org/2000/svg" viewBox="0 0 146.04 146"><defs><style>.cls-1{fill:#b3e036;}.cls-1,.cls-2,.cls-3,.cls-6,.cls-7,.cls-8{stroke:#515151;stroke-width:1.5px;}.cls-1,.cls-2,.cls-3,.cls-6,.cls-8{stroke-linecap:round;}.cls-1,.cls-2,.cls-3,.cls-7{stroke-linejoin:round;}.cls-2{fill:#f5841f;}.cls-3,.cls-8{fill:#ffab50;}.cls-4,.cls-7{fill:#fff;}.cls-5{fill:#515151;}.cls-6{fill:none;}.cls-6,.cls-8{stroke-miterlimit:10;}</style></defs><title>Artboard 3</title><g id="Layer_2" data-name="Layer 2"><g id="Layer_1-2" data-name="Layer 1-2"><path class="cls-1" d="M73,77.48,14.32,111.35a67.76,67.76,0,0,0,117.36,0Z"/><path class="cls-2" d="M77.48.75V68.51l58.69,33.92A67.75,67.75,0,0,0,77.48.75Z"/><path class="cls-3" d="M.75,68.51a67.43,67.43,0,0,0,9.08,33.92L68.51,68.56V.75A67.78,67.78,0,0,0,.75,68.51Z"/><path class="cls-4" d="M24.9,72.17a4.34,4.34,0,0,1-4.33-4.28V46.77a.31.31,0,0,0-.13-.25c-2.06-1.56-4.52-4.18-4.52-7.8,0-6.77,9.6-12.48,21-12.48s21,5.71,21,12.48c0,3.61-2.46,6.23-4.53,7.8a.31.31,0,0,0-.13.25V67.89A4.34,4.34,0,0,1,49,72.17Z"/><path class="cls-5" d="M36.9,27.07c10.92,0,20.15,5.34,20.15,11.65,0,3.27-2.29,5.68-4.2,7.13a1.09,1.09,0,0,0-.46.92V67.89A3.51,3.51,0,0,1,49,71.33H24.9a3.49,3.49,0,0,1-3.49-3.44V46.77a1.1,1.1,0,0,0-.47-.92C19,44.4,16.75,42,16.75,38.72c0-6.31,9.23-11.65,20.15-11.65m0-1.67c-12,0-21.82,6-21.82,13.37,0,3.07,1.61,5.94,4.66,8.31V67.89a5.17,5.17,0,0,0,5.16,5.17H49a5.17,5.17,0,0,0,5.11-5.17V47c3-2.37,4.66-5.25,4.66-8.31C58.72,31.37,48.92,25.4,36.9,25.4Z"/><line class="cls-6" x1="33.92" y1="46.12" x2="28.5" y2="51.54"/><line class="cls-6" x1="43.57" y1="46.24" x2="29.16" y2="60.67"/><line class="cls-6" x1="45.29" y1="54.55" x2="39.86" y2="59.98"/><path class="cls-4" d="M112.63,73a13.12,13.12,0,0,1-3.74-.55,6.78,6.78,0,0,0-2-.3,6.57,6.57,0,0,0-2,.3,13.24,13.24,0,0,1-3.75.55c-2.14,0-4.46-1.21-6.69-3.49-4.46-4.46-7.8-11.9-7.8-17.36,0-8.26,5-13.37,9.73-14.49A10.07,10.07,0,0,1,99,37.4a17.72,17.72,0,0,1,4.46.63,14.26,14.26,0,0,0,5.89.24c.4-.07.79-.14,1.18-.24A17.78,17.78,0,0,1,115,37.4a10,10,0,0,1,2.56.3c4.7,1.22,9.73,6.29,9.73,14.49,0,5.57-3.53,13.3-8.05,17.65C116.92,71.94,114.69,73,112.63,73Z"/><path class="cls-5" d="M114.86,38.18a9.33,9.33,0,0,1,2.35.28c4.46,1.11,9.11,5.88,9.11,13.73,0,5.43-3.54,12.94-7.8,17-1.9,1.82-3.94,3-5.89,3a12.27,12.27,0,0,1-3.51-.51,7.54,7.54,0,0,0-4.46,0,12.63,12.63,0,0,1-3.51.51c-2,0-4.18-1.26-6.15-3.24-4.14-4.15-7.53-11.46-7.53-16.77,0-7.8,4.69-12.59,9.1-13.73a9.33,9.33,0,0,1,2.35-.28,18.19,18.19,0,0,1,4.21.59,15,15,0,0,0,6.25.27c.42-.07.83-.16,1.25-.27a17.36,17.36,0,0,1,4.19-.59m0-1.67h0a18.53,18.53,0,0,0-4.62.65c-.37.1-.73.17-1.11.24a13.88,13.88,0,0,1-2.23.18,13,13,0,0,1-3.34-.42,18.61,18.61,0,0,0-4.63-.65,11.14,11.14,0,0,0-2.76.32C89,38.68,85.76,46.08,85.76,52.19c0,5.66,3.46,13.37,8,18,2.43,2.44,5,3.73,7.33,3.73a13.82,13.82,0,0,0,4-.59,6.28,6.28,0,0,1,3.51,0,13.82,13.82,0,0,0,4,.59c2.23,0,4.7-1.19,7-3.43C124.32,66,128,57.94,128,52.19c0-6.11-3.23-13.51-10.35-15.36a11.27,11.27,0,0,0-2.77-.32Z"/><path class="cls-7" d="M125.51,26.66s-.91,6.37-5.72,8.23c-4.61,1.78-8.71-3-10.39-2.64a.49.49,0,0,0-.21.08h0c0-.18,1.89-5.67,6.68-6S123.26,28.07,125.51,26.66Z"/><path class="cls-8" d="M102.9,31.89a17.65,17.65,0,0,1,1.88,2.81,28.77,28.77,0,0,1,1.61,8.11"/><path class="cls-8" d="M109,32.58a15.33,15.33,0,0,0-2.14,1.88A4.81,4.81,0,0,0,105.54,37"/><path class="cls-8" d="M97.88,41.55s-2.83.2-5.24,3.91a8.68,8.68,0,0,0-1,2.14"/><path class="cls-3" d="M91.29,52.77l-.17-1.52A9.69,9.69,0,0,0,91.29,52.77Z"/><path class="cls-4" d="M67,130.62a29.79,29.79,0,0,1-19.42-7.24,30.88,30.88,0,0,1-6.38-7.25,2.29,2.29,0,0,1,0-2.32,31.11,31.11,0,0,1,6.39-7.29A29.93,29.93,0,0,1,67,99.3c8.47,0,17.57,3.44,27.1,10.21l7.57-4.37a2.4,2.4,0,0,1,1.11-.31,2.43,2.43,0,0,1,1.12.3,2.29,2.29,0,0,1,1.11,2v15.66a2.24,2.24,0,0,1-1.11,2,2.44,2.44,0,0,1-1.12.31,2.4,2.4,0,0,1-1.11-.31l-7.57-4.37c-9.53,6.77-18.63,10.21-27.07,10.21Z"/><path class="cls-5" d="M67,100.14h0c7.45,0,16.47,2.75,27,10.36l8-4.63a1.43,1.43,0,0,1,1.46,0,1.45,1.45,0,0,1,.72,1.26v15.66a1.43,1.43,0,0,1-1.42,1.46,1.47,1.47,0,0,1-.74-.2l-8-4.63C83.5,127,74.49,129.78,67,129.78h0a28.86,28.86,0,0,1-18.88-7,30.24,30.24,0,0,1-6.2-7,1.45,1.45,0,0,1,0-1.48,30.24,30.24,0,0,1,6.2-7,28.91,28.91,0,0,1,18.88-7m0-1.67h0a30.61,30.61,0,0,0-20,7.42,31.79,31.79,0,0,0-6.55,7.47,3.15,3.15,0,0,0,0,3.17,32,32,0,0,0,6.57,7.5A30.66,30.66,0,0,0,67,131.41c8.51,0,17.63-3.34,27.15-10l7.09,4.1a3.13,3.13,0,0,0,4.7-2.71V107.13a3.13,3.13,0,0,0-4.68-2.72l-7.11,4.11c-9.51-6.69-18.64-10-27.13-10Z"/><circle class="cls-5" cx="56.71" cy="111.81" r="2.62"/><path class="cls-6" d="M64.45,106.56a11.43,11.43,0,0,1,2.66,7.87,14.22,14.22,0,0,1-2.66,8.64"/></g></g></svg>