<svg id="Layer_1" data-name="Layer 1" xmlns="http://www.w3.org/2000/svg" viewBox="0 0 195.24 144.5"><defs><style>.cls-1,.cls-5{fill:#fff;}.cls-2{fill:#515151;}.cls-3{fill:#f5841f;}.cls-4{fill:#ffab50;}.cls-5,.cls-6{stroke:#515151;stroke-miterlimit:10;stroke-width:1.5px;}.cls-6{fill:#b3e036;}</style></defs><title>Artboard 4</title><g id="Layer_2" data-name="Layer 2"><g id="Layer_1-2" data-name="Layer 1-2"><path class="cls-1" d="M191.57,140.83a2.89,2.89,0,0,1-2.71-3V77.67H188A12,12,0,0,1,179.63,74c-4.75-5.08-4.75-14.44-4.18-29.23A72.28,72.28,0,0,1,189.56,4.69a2.6,2.6,0,0,1,2-1,2.49,2.49,0,0,1,.93.19,3,3,0,0,1,1.77,2.83v131a2.87,2.87,0,0,1-2.63,3.1Z"/><path class="cls-2" d="M191.57,4.6a1.25,1.25,0,0,1,.57.13,2.11,2.11,0,0,1,1.23,2v131a1.81,1.81,0,0,1-3.58.59,2,2,0,0,1,0-.59V76.83l-1.69-.13a11.28,11.28,0,0,1-7.79-3.38c-4.5-4.83-4.49-14-3.93-28.57A71.34,71.34,0,0,1,190.27,5.27a1.71,1.71,0,0,1,1.3-.67m0-1.83a3.47,3.47,0,0,0-2.72,1.34,73.77,73.77,0,0,0-14.32,40.56c-.57,15-.56,24.56,4.42,29.89a13.08,13.08,0,0,0,9,4v59.26a3.67,3.67,0,1,0,7.25,1.19,3.4,3.4,0,0,0,0-1.19V6.7A3.91,3.91,0,0,0,192.84,3a3.41,3.41,0,0,0-1.22-.25Z"/><path class="cls-3" d="M99.45,143.57a71.33,71.33,0,1,1,71.34-71.33h0A71.41,71.41,0,0,1,99.45,143.57Z"/><path class="cls-2" d="M99.45,1.84a70.41,70.41,0,1,1-70.4,70.42h0A70.5,70.5,0,0,1,99.45,1.84m0-1.84A72.25,72.25,0,1,0,171.7,72.25h0A72.32,72.32,0,0,0,99.45,0Z"/><path class="cls-4" d="M29.05,72.25c0,38.82,30.21,70.4,67.36,70.4h.34S42,136.42,38.42,72.54C38.42,22,96.75,1.92,96.75,1.92,59.75,2.12,29.05,33.53,29.05,72.25Z"/><path class="cls-5" d="M99.45,11.9a60.34,60.34,0,1,0,60.34,60.35A60.34,60.34,0,0,0,99.45,11.9Z"/><path class="cls-1" d="M13.94,140.83a2.87,2.87,0,0,1-2.58-3.08V57l-.52-.25C4.91,53.88.93,42.86.93,29.61V6.76A2.87,2.87,0,0,1,3.51,3.67,2.87,2.87,0,0,1,6.13,6.76V26.54h5.23V6.76a2.87,2.87,0,0,1,2.58-3.09,2.87,2.87,0,0,1,2.6,3.09V26.54h5.25V6.76a2.87,2.87,0,0,1,2.59-3.09A2.87,2.87,0,0,1,27,6.76V29.61C27,42.86,23,53.88,17,56.77l-.5.25v80.71A2.88,2.88,0,0,1,13.94,140.83Z"/><path class="cls-2" d="M24.38,4.6a2,2,0,0,1,1.67,2.16V29.61c0,12.75-3.87,23.57-9.41,26.34l-1,.5v81.28a2,2,0,0,1-1.68,2.14,2,2,0,0,1-1.69-2.14V56.45l-1-.5c-5.53-2.77-9.4-13.59-9.4-26.34V6.76A2,2,0,0,1,3.51,4.6,2,2,0,0,1,5.19,6.76v20.7h7.06V6.76A2,2,0,0,1,13.92,4.6,2,2,0,0,1,15.6,6.76v20.7h7.09V6.76A2,2,0,0,1,24.38,4.6m0-1.83a3.79,3.79,0,0,0-3.56,4h0V25.62H17.46V6.76a3.78,3.78,0,0,0-3.52-4,3.76,3.76,0,0,0-3.5,4V25.62H7V6.76a3.77,3.77,0,0,0-3.51-4,3.76,3.76,0,0,0-3.5,4V29.61c0,13.91,4.3,24.92,10.43,28v80.13a3.76,3.76,0,0,0,3.5,4,3.76,3.76,0,0,0,3.52-4V57.56c6.12-3.07,10.43-14.08,10.43-28V6.76A3.77,3.77,0,0,0,24.38,2.77Z"/><path class="cls-1" d="M102,99.85a29.18,29.18,0,0,1-8.79-1.37l-12.66-4V57.19h.92c8.85,0,15.66-10.34,17.66-17.67l1.5-5.57a3.67,3.67,0,0,1,3.46-2.61h1.61a8.75,8.75,0,0,1,3,.5,8.56,8.56,0,0,1,6,8.07v.27c0,5.3,0,8.57-2.86,17h20.82a6.11,6.11,0,0,1,6.3,5.93v.09A6,6,0,0,1,136,68.32a5.88,5.88,0,0,1,0,10.2A5.94,5.94,0,0,1,139,83.63a6.11,6.11,0,0,1-6.22,6h-.94a5.82,5.82,0,0,1,1.77,4.18,6.11,6.11,0,0,1-6.21,6H102Z"/><path class="cls-2" d="M105.74,32.26a8.06,8.06,0,0,1,8.08,7.65c0,5.71,0,8.85-3.23,18.2h22a5.12,5.12,0,0,1,.71,10.21,4.21,4.21,0,0,1-.71,0,5.11,5.11,0,0,1,.5,10.2,4.17,4.17,0,0,1-.5,0,5.12,5.12,0,0,1,.71,10.21,4.21,4.21,0,0,1-.71,0h-5.39a5.11,5.11,0,0,1,.5,10.2H102a28,28,0,0,1-8.57-1.32l-12-3.78V58.11c9,0,16.27-10,18.54-18.37l1.51-5.56a2.75,2.75,0,0,1,2.62-1.92h1.61m0-1.84H104.1a4.61,4.61,0,0,0-4.38,3.32l-1.5,5.53C95.06,51,86.52,56.33,81.48,56.33H79.6V95.17l1.23.41,12,3.78a30.42,30.42,0,0,0,9.08,1.41h25.27a7.09,7.09,0,0,0,7.23-6.94,6.66,6.66,0,0,0-.89-3.32,7.07,7.07,0,0,0,6.29-6.88,6.86,6.86,0,0,0-2.34-5.11,6.74,6.74,0,0,0,.7-9.5,7.71,7.71,0,0,0-.7-.7,6.86,6.86,0,0,0,2.34-5.11,7.1,7.1,0,0,0-7.14-6.88h-19.6a42,42,0,0,0,2.45-16.09V40a9.78,9.78,0,0,0-9.79-9.55Z"/><path class="cls-6" d="M76.09,104.09H59.91a2.63,2.63,0,0,1-2.69-2.56v-46A2.63,2.63,0,0,1,59.91,53H76.09a7.88,7.88,0,0,1,8.08,7.65V96.39a7.88,7.88,0,0,1-8.06,7.7Z"/><path class="cls-3" d="M108.43,19.5v5.1a2.71,2.71,0,0,1-5.4,0V19.5a2.71,2.71,0,0,1,5.4,0Z"/><path class="cls-3" d="M90.49,31.63,86.67,28a2.45,2.45,0,0,1-.14-3.46l.14-.14a2.81,2.81,0,0,1,3.82,0L94.3,28a2.44,2.44,0,0,1,.15,3.46l-.15.15A2.79,2.79,0,0,1,90.49,31.63Z"/><path class="cls-3" d="M117.16,31.63a2.45,2.45,0,0,1-.15-3.46l.15-.15,3.82-3.6a2.77,2.77,0,0,1,3.81,0,2.44,2.44,0,0,1,.14,3.46l-.14.14L121,31.63A2.83,2.83,0,0,1,117.16,31.63Z"/></g></g></svg>