<svg id="Layer_1" data-name="Layer 1" xmlns="http://www.w3.org/2000/svg" xmlns:xlink="http://www.w3.org/1999/xlink" viewBox="0 0 132.68 154.61"><defs><style>.cls-1{fill:none;}.cls-2{fill:#ffab50;}.cls-3{fill:#515151;}.cls-4{clip-path:url(#clip-path);}.cls-5{fill:#ff8400;}.cls-5,.cls-7,.cls-8{stroke:#515151;stroke-miterlimit:10;stroke-width:1.5px;}.cls-6{fill:#fff;}.cls-7{fill:#b3e036;}.cls-8{fill:#90d200;}.cls-9{fill:#a5a5a5;}</style><clipPath id="clip-path"><path class="cls-1" d="M131.18,77c0,36.44-29,66-64.83,66S1.51,113.45,1.51,77V0H131.18Z"/></clipPath></defs><title>Artboard 2</title><g id="Layer_2" data-name="Layer 2"><g id="Layer_1-2" data-name="Layer 1-2"><path class="cls-2" d="M66.35,143.74a65.59,65.59,0,1,1,65.58-65.6v0A65.66,65.66,0,0,1,66.35,143.74Z"/><path class="cls-3" d="M66.35,13.32A64.84,64.84,0,1,1,1.51,78.16,64.84,64.84,0,0,1,66.35,13.32h0m0-1.5a66.34,66.34,0,1,0,66.33,66.35h0A66.41,66.41,0,0,0,66.35,11.82Z"/><g class="cls-4"><path class="cls-5" d="M103.08,144.49H29.62c-4.78,0-8.65-4.36-8.65-9.74v-112C21,17.39,24.84,13,29.62,13h73.46c4.77,0,8.64,4.36,8.64,9.74v112C111.72,140.13,107.85,144.49,103.08,144.49Z"/><path class="cls-6" d="M103.68,154.61H29c-1.21,0-2.19-1.25-2.19-2.8V23.13A2.56,2.56,0,0,1,29,20.34h74.67a2.55,2.55,0,0,1,2.2,2.79V151.81A2.56,2.56,0,0,1,103.68,154.61Z"/><path class="cls-7" d="M81,13h-7.3V10.6A7.32,7.32,0,0,0,59,10.6V13h-7.3a4.87,4.87,0,0,0-4.87,4.87v4.87h39V17.9A4.87,4.87,0,0,0,81,13Zm-14.6,0a2.44,2.44,0,1,1,2.43-2.45v0A2.43,2.43,0,0,1,66.35,13Z"/><path class="cls-8" d="M85.82,25.2H46.87a2.43,2.43,0,0,1-2.43-2.43h0a2.43,2.43,0,0,1,2.43-2.43h39a2.43,2.43,0,0,1,2.43,2.43h0a2.43,2.43,0,0,1-2.43,2.43Z"/><path class="cls-3" d="M41.93,58.13a2.28,2.28,0,0,1-1.61-.67l-6.83-6.83a2.28,2.28,0,0,1,3.22-3.22l5.22,5.22,9.78-9.78a2.28,2.28,0,0,1,3.22,3.22L43.54,57.46A2.28,2.28,0,0,1,41.93,58.13Z"/><path class="cls-9" d="M84.34,49H64.23a2.42,2.42,0,0,1-2.52-2.28h0a2.42,2.42,0,0,1,2.52-2.28H84.34a2.4,2.4,0,0,1,2.51,2.28h0A2.4,2.4,0,0,1,84.34,49Z"/><path class="cls-9" d="M96.91,58.13H64.23a2.42,2.42,0,0,1-2.52-2.28h0a2.42,2.42,0,0,1,2.52-2.28H96.91a2.42,2.42,0,0,1,2.52,2.28h0A2.42,2.42,0,0,1,96.91,58.13Z"/><path class="cls-3" d="M41.93,127.74a2.28,2.28,0,0,1-1.61-.67l-6.83-6.83A2.28,2.28,0,0,1,36.71,117l5.22,5.22,9.78-9.77a2.28,2.28,0,0,1,3.22,3.22l-11.39,11.4A2.26,2.26,0,0,1,41.93,127.74Z"/><path class="cls-9" d="M84.34,118.63H64.23a2.41,2.41,0,0,1-2.52-2.27h0a2.42,2.42,0,0,1,2.52-2.28H84.34a2.4,2.4,0,0,1,2.51,2.28h0A2.4,2.4,0,0,1,84.34,118.63Z"/><path class="cls-9" d="M96.91,127.74H64.23a2.42,2.42,0,0,1-2.52-2.28h0a2.41,2.41,0,0,1,2.52-2.27H96.91a2.41,2.41,0,0,1,2.52,2.27h0A2.42,2.42,0,0,1,96.91,127.74Z"/><path class="cls-3" d="M41.93,92.93a2.31,2.31,0,0,1-1.61-.66l-6.83-6.84a2.28,2.28,0,1,1,3-3.39,1.37,1.37,0,0,1,.17.17l5.22,5.23,9.78-9.78a2.28,2.28,0,0,1,3.22,3.22L43.54,92.27A2.31,2.31,0,0,1,41.93,92.93Z"/><path class="cls-9" d="M84.34,83.82H64.23a2.4,2.4,0,0,1-2.52-2.27h0a2.42,2.42,0,0,1,2.52-2.28H84.34a2.4,2.4,0,0,1,2.51,2.28h0a2.39,2.39,0,0,1-2.5,2.27Z"/><path class="cls-9" d="M96.91,92.93H64.23a2.41,2.41,0,0,1-2.52-2.27h0a2.42,2.42,0,0,1,2.52-2.28H96.91a2.42,2.42,0,0,1,2.52,2.28h0A2.41,2.41,0,0,1,96.91,92.93Z"/></g></g></g></svg>