<svg xmlns="http://www.w3.org/2000/svg" width="147" height="25" viewBox="0 0 147 25">
  <metadata><?xpacket begin="﻿" id="W5M0MpCehiHzreSzNTczkc9d"?>
<x:xmpmeta xmlns:x="adobe:ns:meta/" x:xmptk="Adobe XMP Core 5.6-c140 79.160451, 2017/05/06-01:08:21        ">
   <rdf:RDF xmlns:rdf="http://www.w3.org/1999/02/22-rdf-syntax-ns#">
      <rdf:Description rdf:about=""/>
   </rdf:RDF>
</x:xmpmeta>
                                                                                                    
                                                                                                    
                                                                                                    
                                                                                                    
                                                                                                    
                                                                                                    
                                                                                                    
                                                                                                    
                                                                                                    
                                                                                                    
                                                                                                    
                                                                                                    
                                                                                                    
                                                                                                    
                                                                                                    
                                                                                                    
                                                                                                    
                                                                                                    
                                                                                                    
                                                                                                    
                           
<?xpacket end="w"?></metadata>
<defs>
    <style>
      .cls-1 {
        fill: #a5a5a5;
        fill-rule: evenodd;
      }
    </style>
  </defs>
  <g id="Artboard_1" data-name="Artboard 1">
    <path id="Forma_1_copy_3" data-name="Forma 1 copy 3" class="cls-1" d="M356.023,0.411l3.41,7.892,8.73,0.734a0.67,0.67,0,0,1,.391,1.179l-6.621,5.611,1.983,8.346a0.682,0.682,0,0,1-1.023.728l-7.5-4.424-7.5,4.424a0.684,0.684,0,0,1-1.025-.728l1.984-8.346-6.622-5.611a0.67,0.67,0,0,1,.392-1.179l8.729-.733,3.409-7.892A0.694,0.694,0,0,1,356.023.411Z" transform="translate(-342)"/>
    <path id="Forma_1_copy_4" data-name="Forma 1 copy 4" class="cls-1" d="M386.178,0.411l3.41,7.892,8.729,0.734a0.67,0.67,0,0,1,.391,1.179l-6.62,5.611,1.985,8.346a0.685,0.685,0,0,1-1.027.728l-7.5-4.424-7.5,4.424a0.685,0.685,0,0,1-1.025-.728L379,15.827l-6.625-5.611a0.67,0.67,0,0,1,.395-1.179L381.5,8.3l3.41-7.892A0.693,0.693,0,0,1,386.178.411Z" transform="translate(-342)"/>
    <path id="Forma_1_copy_5" data-name="Forma 1 copy 5" class="cls-1" d="M416.332,0.411L419.743,8.3l8.729,0.734a0.671,0.671,0,0,1,.394,1.179l-6.623,5.611,1.985,8.346a0.685,0.685,0,0,1-1.026.728l-7.5-4.424L408.2,24.9a0.683,0.683,0,0,1-1.024-.728l1.982-8.346-6.621-5.611a0.669,0.669,0,0,1,.39-1.179l8.731-.733,3.409-7.892A0.693,0.693,0,0,1,416.332.411Z" transform="translate(-342)"/>
    <path id="Shape_1_copy_2" data-name="Shape 1 copy 2" class="cls-1" d="M486.966,9.448a0.708,0.708,0,0,0-.559-0.494l-7.793-1.161L475.107,0.4a0.693,0.693,0,0,0-.621-0.4h0a0.689,0.689,0,0,0-.62.408l-3.461,7.411-7.793,1.215a0.706,0.706,0,0,0-.559.494,0.741,0.741,0,0,0,.179.742l5.655,5.745-1.307,8.136a0.734,0.734,0,0,0,.277.709,0.663,0.663,0,0,0,.4.14,0.635,0.635,0,0,0,.323-0.086l6.958-3.864,6.978,3.821a0.679,0.679,0,0,0,.318.081h0a0.713,0.713,0,0,0,.692-0.726,0.571,0.571,0,0,0-.021-0.167l-1.348-8.088,5.619-5.777A0.734,0.734,0,0,0,486.966,9.448ZM479.942,15.2a0.737,0.737,0,0,0-.195.645l1.174,7.056-6.061-3.316a0.673,0.673,0,0,0-.646,0l-6.039,3.353,1.133-7.067a0.746,0.746,0,0,0-.2-0.639l-4.9-4.987,6.763-1.053a0.691,0.691,0,0,0,.518-0.4l3-6.433,3.046,6.417a0.706,0.706,0,0,0,.523.4l6.768,1.01Zm7.024-5.756a0.708,0.708,0,0,0-.559-0.494l-7.793-1.161L475.107,0.4a0.693,0.693,0,0,0-.621-0.4h0a0.689,0.689,0,0,0-.62.408l-3.461,7.411-7.793,1.215a0.706,0.706,0,0,0-.559.494,0.741,0.741,0,0,0,.179.742l5.655,5.745-1.307,8.136a0.734,0.734,0,0,0,.277.709,0.663,0.663,0,0,0,.4.14,0.635,0.635,0,0,0,.323-0.086l6.958-3.864,6.978,3.821a0.679,0.679,0,0,0,.318.081h0a0.713,0.713,0,0,0,.692-0.726,0.571,0.571,0,0,0-.021-0.167l-1.348-8.088,5.619-5.777A0.734,0.734,0,0,0,486.966,9.448ZM479.942,15.2a0.737,0.737,0,0,0-.195.645l1.174,7.056-6.061-3.316a0.673,0.673,0,0,0-.646,0l-6.039,3.353,1.133-7.067a0.746,0.746,0,0,0-.2-0.639l-4.9-4.987,6.763-1.053a0.691,0.691,0,0,0,.518-0.4l3-6.433,3.046,6.417a0.706,0.706,0,0,0,.523.4l6.768,1.01Zm7.024-5.756a0.708,0.708,0,0,0-.559-0.494l-7.793-1.161L475.107,0.4a0.693,0.693,0,0,0-.621-0.4h0a0.689,0.689,0,0,0-.62.408l-3.461,7.411-7.793,1.215a0.706,0.706,0,0,0-.559.494,0.741,0.741,0,0,0,.179.742l5.655,5.745-1.307,8.136a0.734,0.734,0,0,0,.277.709,0.663,0.663,0,0,0,.4.14,0.635,0.635,0,0,0,.323-0.086l6.958-3.864,6.978,3.821a0.679,0.679,0,0,0,.318.081h0a0.713,0.713,0,0,0,.692-0.726,0.571,0.571,0,0,0-.021-0.167l-1.348-8.088,5.619-5.777A0.734,0.734,0,0,0,486.966,9.448ZM479.942,15.2a0.737,0.737,0,0,0-.195.645l1.174,7.056-6.061-3.316a0.673,0.673,0,0,0-.646,0l-6.039,3.353,1.133-7.067a0.746,0.746,0,0,0-.2-0.639l-4.9-4.987,6.763-1.053a0.691,0.691,0,0,0,.518-0.4l3-6.433,3.046,6.417a0.706,0.706,0,0,0,.523.4l6.768,1.01Z" transform="translate(-342)"/>
    <path id="Shape_1_copy_3" data-name="Shape 1 copy 3" class="cls-1" d="M457.966,9.448a0.708,0.708,0,0,0-.559-0.494l-7.793-1.161L446.107,0.4a0.693,0.693,0,0,0-.621-0.4h0a0.689,0.689,0,0,0-.62.408l-3.461,7.411-7.793,1.215a0.706,0.706,0,0,0-.559.494,0.741,0.741,0,0,0,.179.742l5.655,5.745-1.307,8.136a0.734,0.734,0,0,0,.277.709,0.663,0.663,0,0,0,.4.14,0.635,0.635,0,0,0,.323-0.086l6.958-3.864,6.978,3.821a0.679,0.679,0,0,0,.318.081h0a0.713,0.713,0,0,0,.692-0.726,0.571,0.571,0,0,0-.021-0.167l-1.348-8.088,5.619-5.777A0.734,0.734,0,0,0,457.966,9.448ZM450.942,15.2a0.737,0.737,0,0,0-.195.645l1.174,7.056-6.061-3.316a0.673,0.673,0,0,0-.646,0l-6.039,3.353,1.133-7.067a0.746,0.746,0,0,0-.2-0.639l-4.9-4.987,6.763-1.053a0.691,0.691,0,0,0,.518-0.4l3-6.433,3.046,6.417a0.706,0.706,0,0,0,.523.4l6.768,1.01Zm7.024-5.756a0.708,0.708,0,0,0-.559-0.494l-7.793-1.161L446.107,0.4a0.693,0.693,0,0,0-.621-0.4h0a0.689,0.689,0,0,0-.62.408l-3.461,7.411-7.793,1.215a0.706,0.706,0,0,0-.559.494,0.741,0.741,0,0,0,.179.742l5.655,5.745-1.307,8.136a0.734,0.734,0,0,0,.277.709,0.663,0.663,0,0,0,.4.14,0.635,0.635,0,0,0,.323-0.086l6.958-3.864,6.978,3.821a0.679,0.679,0,0,0,.318.081h0a0.713,0.713,0,0,0,.692-0.726,0.571,0.571,0,0,0-.021-0.167l-1.348-8.088,5.619-5.777A0.734,0.734,0,0,0,457.966,9.448ZM450.942,15.2a0.737,0.737,0,0,0-.195.645l1.174,7.056-6.061-3.316a0.673,0.673,0,0,0-.646,0l-6.039,3.353,1.133-7.067a0.746,0.746,0,0,0-.2-0.639l-4.9-4.987,6.763-1.053a0.691,0.691,0,0,0,.518-0.4l3-6.433,3.046,6.417a0.706,0.706,0,0,0,.523.4l6.768,1.01Zm7.024-5.756a0.708,0.708,0,0,0-.559-0.494l-7.793-1.161L446.107,0.4a0.693,0.693,0,0,0-.621-0.4h0a0.689,0.689,0,0,0-.62.408l-3.461,7.411-7.793,1.215a0.706,0.706,0,0,0-.559.494,0.741,0.741,0,0,0,.179.742l5.655,5.745-1.307,8.136a0.734,0.734,0,0,0,.277.709,0.663,0.663,0,0,0,.4.14,0.635,0.635,0,0,0,.323-0.086l6.958-3.864,6.978,3.821a0.679,0.679,0,0,0,.318.081h0a0.713,0.713,0,0,0,.692-0.726,0.571,0.571,0,0,0-.021-0.167l-1.348-8.088,5.619-5.777A0.734,0.734,0,0,0,457.966,9.448ZM450.942,15.2a0.737,0.737,0,0,0-.195.645l1.174,7.056-6.061-3.316a0.673,0.673,0,0,0-.646,0l-6.039,3.353,1.133-7.067a0.746,0.746,0,0,0-.2-0.639l-4.9-4.987,6.763-1.053a0.691,0.691,0,0,0,.518-0.4l3-6.433,3.046,6.417a0.706,0.706,0,0,0,.523.4l6.768,1.01Z" transform="translate(-342)"/>
  </g>
</svg>
