<svg xmlns="http://www.w3.org/2000/svg" width="147" height="25" viewBox="0 0 147 25">
  <metadata><?xpacket begin="﻿" id="W5M0MpCehiHzreSzNTczkc9d"?>
<x:xmpmeta xmlns:x="adobe:ns:meta/" x:xmptk="Adobe XMP Core 5.6-c140 79.160451, 2017/05/06-01:08:21        ">
   <rdf:RDF xmlns:rdf="http://www.w3.org/1999/02/22-rdf-syntax-ns#">
      <rdf:Description rdf:about=""/>
   </rdf:RDF>
</x:xmpmeta>
                                                                                                    
                                                                                                    
                                                                                                    
                                                                                                    
                                                                                                    
                                                                                                    
                                                                                                    
                                                                                                    
                                                                                                    
                                                                                                    
                                                                                                    
                                                                                                    
                                                                                                    
                                                                                                    
                                                                                                    
                                                                                                    
                                                                                                    
                                                                                                    
                                                                                                    
                                                                                                    
                           
<?xpacket end="w"?></metadata>
<defs>
    <style>
      .cls-1 {
        fill: #a5a5a5;
        fill-rule: evenodd;
      }
    </style>
  </defs>
  <g id="Artboard_1" data-name="Artboard 1">
    <path id="Forma_1_copy_3" data-name="Forma 1 copy 3" class="cls-1" d="M356.023,0.411l3.41,7.892,8.73,0.734a0.67,0.67,0,0,1,.391,1.179l-6.621,5.611,1.983,8.346a0.682,0.682,0,0,1-1.023.728l-7.5-4.424-7.5,4.424a0.684,0.684,0,0,1-1.025-.728l1.984-8.346-6.622-5.611a0.67,0.67,0,0,1,.392-1.179l8.729-.733,3.409-7.892A0.694,0.694,0,0,1,356.023.411Z" transform="translate(-342)"/>
    <path id="Forma_1_copy_4" data-name="Forma 1 copy 4" class="cls-1" d="M386.178,0.411l3.41,7.892,8.729,0.734a0.67,0.67,0,0,1,.391,1.179l-6.62,5.611,1.985,8.346a0.685,0.685,0,0,1-1.027.728l-7.5-4.424-7.5,4.424a0.685,0.685,0,0,1-1.025-.728L379,15.827l-6.625-5.611a0.67,0.67,0,0,1,.395-1.179L381.5,8.3l3.41-7.892A0.693,0.693,0,0,1,386.178.411Z" transform="translate(-342)"/>
    <path id="Forma_1_copy_5" data-name="Forma 1 copy 5" class="cls-1" d="M416.332,0.411L419.743,8.3l8.729,0.734a0.671,0.671,0,0,1,.394,1.179l-6.623,5.611,1.985,8.346a0.685,0.685,0,0,1-1.026.728l-7.5-4.424L408.2,24.9a0.683,0.683,0,0,1-1.024-.728l1.982-8.346-6.621-5.611a0.669,0.669,0,0,1,.39-1.179l8.731-.733,3.409-7.892A0.693,0.693,0,0,1,416.332.411Z" transform="translate(-342)"/>
    <path id="Forma_1_copy_6" data-name="Forma 1 copy 6" class="cls-1" d="M446.27,0.411L449.681,8.3l8.729,0.734a0.671,0.671,0,0,1,.394,1.179l-6.622,5.611,1.983,8.346a0.684,0.684,0,0,1-1.025.728l-7.5-4.424-7.5,4.424a0.683,0.683,0,0,1-1.024-.728l1.983-8.346-6.621-5.611a0.669,0.669,0,0,1,.391-1.179l8.729-.733L445,0.411A0.693,0.693,0,0,1,446.27.411Z" transform="translate(-342)"/>
    <path id="Forma_1_copy_7" data-name="Forma 1 copy 7" class="cls-1" d="M476.27,0.411L479.681,8.3l8.729,0.734a0.671,0.671,0,0,1,.394,1.179l-6.622,5.611,1.983,8.346a0.684,0.684,0,0,1-1.025.728l-7.5-4.424-7.5,4.424a0.683,0.683,0,0,1-1.024-.728l1.983-8.346-6.621-5.611a0.669,0.669,0,0,1,.391-1.179l8.729-.733L475,0.411A0.693,0.693,0,0,1,476.27.411Z" transform="translate(-342)"/>
  </g>
</svg>
